<?xml version="1.0" encoding="utf-8"?>
<!-- Generator: Adobe Illustrator 24.1.1, SVG Export Plug-In . SVG Version: 6.00 Build 0)  -->
<svg version="1.1" id="Layer_1" xmlns="http://www.w3.org/2000/svg" xmlns:xlink="http://www.w3.org/1999/xlink" x="0px" y="0px"
	 viewBox="0 0 512 512" style="enable-background:new 0 0 512 512;" xml:space="preserve">
<g>
	<path d="M256,0C114.6,0,0,114.6,0,256s114.6,256,256,256s256-114.6,256-256S397.4,0,256,0z M127,108.2l45.6,14.3
		c6,2,10,7.6,10.7,13.3l2.6,25.1l206.3,23c8.9,1.7,15.1,9.7,13.8,17.9L393.2,274c-1.6,7.6-7.9,12.7-14.8,12.8H195.1l-3.6,20.5h174.1
		c9.1,0.3,15.8,7.3,15.9,15.3c-0.4,9.2-7.8,15.3-15.9,15.4H173c-9.7-0.8-16.8-8.5-15.3-17.9l8.2-45.1l-12.8-126l-35.3-11.3
		c-4.1-1.4-7.2-3.9-9.2-7.7c-3.9-8.1-0.3-17.1,6.7-21C119.1,107.1,123,106.8,127,108.2z M196.3,346.9c13.3,0,24,10.7,24,24
		c0,13.3-10.7,24-24,24c-13.3,0-24-10.7-24-24C172.3,357.6,183.1,346.9,196.3,346.9z M337.2,346.9c13.3,0,24,10.7,24,24
		c0,13.3-10.7,24-24,24c-13.3,0-24-10.7-24-24C313.2,357.6,324,346.9,337.2,346.9z"/>
</g>
</svg>
